<svg width="41" height="29" viewBox="0 0 41 29" fill="none" xmlns="http://www.w3.org/2000/svg">
    <path
        d="M41 21.5469C41 25.4387 38.8392 28.5938 34.5938 28.5938H6.40625C2.16083 28.5938 0 25.4387 0 21.5469V7.45312C0 3.56133 2.16083 0.40625 6.40625 0.40625H34.5938C38.8392 0.40625 41 3.56133 41 7.45312V21.5469Z"
        fill="#EC1C24" />
    <path
        d="M8.30931 4.66992L9.67961 7.4528L12.7514 7.89803L10.5304 10.0601L11.0537 13.1223L8.30931 11.6777L5.56423 13.1223L6.08827 10.0601L3.86914 7.89803L6.93581 7.4528L8.30931 4.66992Z"
        fill="#F9CB38" />
    <path
        d="M13.137 2.32422L13.5169 3.09617L14.3715 3.21981L13.7546 3.82136L13.8987 4.67019L13.137 4.26916L12.3759 4.67019L12.5201 3.82136L11.9038 3.21981L12.7565 3.09617L13.137 2.32422Z"
        fill="#F9CB38" />
    <path
        d="M15.6041 5.10156L15.9847 5.87288L16.8354 5.99716L16.2211 6.59998L16.3658 7.44753L15.6041 7.04714L14.8431 7.44753L14.9872 6.59998L14.3716 5.99716L15.223 5.87288L15.6041 5.10156Z"
        fill="#F9CB38" />
    <path
        d="M15.6041 9.55664L15.9847 10.3299L16.8354 10.4535L16.2211 11.0551L16.3658 11.9039L15.6041 11.5041L14.8431 11.9039L14.9872 11.0551L14.3716 10.4535L15.223 10.3299L15.6041 9.55664Z"
        fill="#F9CB38" />
    <path
        d="M13.137 12.6875L13.5169 13.4595L14.3715 13.5825L13.7546 14.1834L13.8987 15.0335L13.137 14.635L12.3759 15.0335L12.5201 14.1834L11.9038 13.5825L12.7565 13.4595L13.137 12.6875Z"
        fill="#F9CB38" />
</svg>
