<svg width="30" height="25" viewBox="0 0 30 25" fill="none" xmlns="http://www.w3.org/2000/svg">
    <path
        d="M19.9149 14.5744C18.7661 14.5744 17.8349 15.8656 17.8349 17.4528C17.8349 19.0432 18.7661 20.3344 19.9149 20.3344C21.0637 20.3344 21.9949 19.0432 21.9949 17.4528C21.9933 15.8656 21.0637 14.5744 19.9149 14.5744ZM27.1565 7.0816C27.3949 6.4976 27.4045 3.1792 26.1405 0C26.1405 0 23.2429 0.3184 18.8589 3.328C17.9389 3.072 16.3821 2.9472 14.8285 2.9472C13.2717 2.9472 11.7165 3.072 10.7965 3.328C6.41093 0.3184 3.51333 0 3.51333 0C2.25093 3.1792 2.26373 6.4976 2.49893 7.0816C1.01413 8.6944 0.106934 10.632 0.106934 13.2752C0.106934 24.7728 9.64773 24.9568 12.0541 24.9568L14.8285 24.96L17.5997 24.9568C20.0093 24.9568 29.5469 24.7728 29.5469 13.2752C29.5469 10.632 28.6413 8.6944 27.1565 7.0816ZM14.8717 23.544H14.7821C8.74853 23.544 4.04773 22.8256 4.04773 16.96C4.04773 15.5536 4.54373 14.2512 5.72293 13.1696C7.68613 11.3664 11.0109 12.32 14.7821 12.32H14.8717C18.6429 12.32 21.9693 11.3664 23.9341 13.1696C25.1101 14.2512 25.6061 15.5536 25.6061 16.96C25.6061 22.8256 20.9069 23.544 14.8717 23.544ZM9.74053 14.5744C8.59173 14.5744 7.66053 15.8656 7.66053 17.4528C7.66053 19.0432 8.59173 20.3344 9.74053 20.3344C10.8909 20.3344 11.8221 19.0432 11.8221 17.4528C11.8221 15.8656 10.8909 14.5744 9.74053 14.5744Z"
        fill="#262F3A" />
</svg>
