<svg width="27" height="27" viewBox="0 0 27 27" fill="none" xmlns="http://www.w3.org/2000/svg">
    <path
        d="M26.4073 10.722H25.3333V10.6667H13.3333V16H20.8687C19.7693 19.1047 16.8153 21.3333 13.3333 21.3333C8.91533 21.3333 5.33333 17.7513 5.33333 13.3333C5.33333 8.91533 8.91533 5.33333 13.3333 5.33333C15.3727 5.33333 17.228 6.10267 18.6407 7.35933L22.412 3.588C20.0307 1.36867 16.8453 0 13.3333 0C5.97 0 0 5.97 0 13.3333C0 20.6967 5.97 26.6667 13.3333 26.6667C20.6967 26.6667 26.6667 20.6967 26.6667 13.3333C26.6667 12.4393 26.5747 11.5667 26.4073 10.722Z"
        fill="#FFC107" />
    <path
        d="M1.5376 7.12733L5.91826 10.34C7.1036 7.40533 9.97426 5.33333 13.3336 5.33333C15.3729 5.33333 17.2283 6.10267 18.6409 7.35933L22.4123 3.588C20.0309 1.36867 16.8456 0 13.3336 0C8.21226 0 3.77093 2.89133 1.5376 7.12733Z"
        fill="#FF3D00" />
    <path
        d="M13.3334 26.6667C16.7774 26.6667 19.9067 25.3487 22.2727 23.2053L18.146 19.7133C16.7624 20.7656 15.0717 21.3347 13.3334 21.3333C9.86538 21.3333 6.92071 19.122 5.81138 16.036L1.46338 19.386C3.67005 23.704 8.15138 26.6667 13.3334 26.6667Z"
        fill="#4CAF50" />
    <path
        d="M26.4075 10.722H25.3335V10.6666H13.3335V16H20.8688C20.343 17.4776 19.3957 18.7687 18.1442 19.714L18.1462 19.7126L22.2728 23.2046C21.9808 23.47 26.6668 20 26.6668 13.3333C26.6668 12.4393 26.5748 11.5666 26.4075 10.722Z"
        fill="#1976D2" />
</svg>
