<svg width="41" height="29" viewBox="0 0 41 29" fill="none" xmlns="http://www.w3.org/2000/svg">
    <path d="M0 10.375H41V19.3438H0V10.375Z" fill="#E6E7E8" />
    <path
        d="M34.5938 0.765625H6.40625C2.16083 0.765625 0 3.9207 0 7.8125V10.375H41V7.8125C41 3.9207 38.8392 0.765625 34.5938 0.765625Z"
        fill="#FF9933" />
    <path
        d="M0 21.9062C0 25.798 2.16083 28.9531 6.40625 28.9531H34.5938C38.8392 28.9531 41 25.798 41 21.9062V19.3438H0V21.9062Z"
        fill="#128807" />
    <path fill-rule="evenodd" clip-rule="evenodd"
        d="M20.6987 10.748C21.5172 10.748 22.3173 10.9909 22.9978 11.4457C23.6783 11.9006 24.2086 12.5471 24.5215 13.3035C24.8345 14.0598 24.916 14.892 24.7559 15.6947C24.5957 16.4974 24.2011 17.2345 23.6218 17.8129C23.0426 18.3912 22.3048 18.7847 21.5019 18.9436C20.6989 19.1026 19.8669 19.0197 19.111 18.7056C18.3552 18.3915 17.7095 17.8602 17.2556 17.179C16.8018 16.4978 16.5603 15.6973 16.5615 14.8788C16.5634 13.7827 17.0001 12.7322 17.7757 11.9577C18.5514 11.1833 19.6026 10.7482 20.6987 10.748ZM17.9408 12.5386C18.0119 12.6193 18.0247 12.7058 17.9773 12.7782C17.9572 12.8115 17.9262 12.8369 17.8895 12.8499C17.8614 12.8604 17.8311 12.8639 17.8013 12.8601C17.7716 12.8563 17.7431 12.8453 17.7185 12.8282C17.6071 12.9876 17.5092 13.156 17.4257 13.3317C17.5225 13.3951 17.5545 13.4745 17.5225 13.5623C17.5053 13.607 17.4715 13.6432 17.428 13.6633C17.3846 13.6834 17.3351 13.6858 17.2899 13.6699C17.2438 13.7622 17.1419 14.1517 17.1407 14.2337C17.1831 14.2418 17.2212 14.2647 17.2483 14.2984C17.2769 14.3318 17.2915 14.3749 17.2893 14.4188C17.2771 14.5393 17.2028 14.5905 17.0894 14.595C17.0715 14.711 17.0734 15.0992 17.0913 15.1754C17.2118 15.1882 17.2752 15.2408 17.2854 15.3324C17.2995 15.431 17.2521 15.4951 17.1368 15.5399C17.1714 15.7302 17.2207 15.9172 17.2854 16.1005C17.3306 16.0868 17.379 16.0884 17.4232 16.105C17.4661 16.1235 17.5 16.1556 17.518 16.1998C17.534 16.2344 17.5372 16.2702 17.5289 16.308C17.5229 16.3361 17.5105 16.3624 17.4926 16.3849C17.4747 16.4074 17.4518 16.4253 17.4257 16.4374C17.5116 16.6155 17.6064 16.7834 17.7185 16.941C17.8184 16.8916 17.9056 16.9032 17.9645 16.9736C17.9904 17.0026 18.0052 17.0398 18.0061 17.0787C18.0081 17.1074 18.0031 17.1362 17.9915 17.1625C17.9799 17.1889 17.962 17.212 17.9395 17.2299C18.0676 17.3798 18.2041 17.5169 18.3527 17.6431C18.4366 17.5694 18.5238 17.5579 18.5987 17.6104C18.6327 17.6341 18.6564 17.6655 18.6673 17.704C18.6751 17.7312 18.6767 17.7598 18.6721 17.7877C18.6674 17.8156 18.6566 17.8422 18.6404 17.8654C18.8024 17.9769 18.9696 18.073 19.1445 18.1562C19.2124 18.0608 19.29 18.0288 19.3739 18.0608C19.4104 18.0739 19.4421 18.0978 19.4648 18.1293C19.4969 18.1806 19.5014 18.237 19.4828 18.2972C19.6673 18.3625 19.8531 18.4125 20.0452 18.4464C20.083 18.3382 20.1484 18.2876 20.2355 18.294C20.2759 18.2972 20.3124 18.3093 20.3444 18.3369C20.3893 18.3779 20.4104 18.4298 20.4066 18.4938C20.6039 18.5079 20.7967 18.5092 20.9882 18.4938C21.0023 18.3702 21.0517 18.3081 21.151 18.294C21.1887 18.2888 21.2271 18.2964 21.2599 18.3157C21.2839 18.3293 21.3045 18.3481 21.3202 18.3707C21.336 18.3934 21.3464 18.4192 21.3508 18.4464C21.5443 18.4106 21.732 18.3612 21.9133 18.2965C21.8973 18.1755 21.9268 18.1031 22.0081 18.0653C22.0378 18.0525 22.0702 18.0475 22.1023 18.0505C22.1356 18.0531 22.1657 18.0633 22.1901 18.0851C22.2138 18.105 22.2336 18.1293 22.2567 18.1543C22.4313 18.0719 22.5989 17.9753 22.7577 17.8654C22.6923 17.7629 22.7307 17.6649 22.7839 17.6213C22.8025 17.6054 22.824 17.5934 22.8472 17.5859C22.8705 17.5784 22.895 17.5756 22.9193 17.5777C22.9436 17.5798 22.9673 17.5867 22.9889 17.598C23.0106 17.6094 23.0297 17.6249 23.0453 17.6437C23.1933 17.5169 23.3323 17.3792 23.4566 17.2312C23.3842 17.1485 23.3701 17.0614 23.4233 16.9865C23.4448 16.9529 23.4778 16.9283 23.5162 16.9173C23.5435 16.9086 23.5724 16.9063 23.6008 16.9107C23.6291 16.915 23.656 16.9258 23.6795 16.9422C23.7916 16.7808 23.889 16.6136 23.9723 16.4381C23.8787 16.3753 23.8448 16.3016 23.873 16.2177C23.8832 16.1804 23.9058 16.1476 23.937 16.1248C23.9619 16.1074 23.9905 16.0961 24.0205 16.0916C24.0505 16.0872 24.0812 16.0898 24.11 16.0992C24.1517 16.0089 24.2554 15.6283 24.2612 15.5361C24.2169 15.528 24.1769 15.5044 24.1484 15.4695C24.1335 15.4522 24.1223 15.432 24.1156 15.4101C24.1089 15.3883 24.1068 15.3653 24.1094 15.3426C24.1118 15.302 24.1286 15.2637 24.1568 15.2343C24.1761 15.214 24.1996 15.1983 24.2258 15.1883C24.252 15.1783 24.2801 15.1744 24.308 15.1767C24.324 14.9829 24.324 14.7881 24.308 14.5944C24.1856 14.5822 24.1273 14.5348 24.1113 14.438C24.1041 14.4015 24.1095 14.3635 24.1267 14.3304C24.1399 14.3048 24.1588 14.2826 24.1821 14.2656C24.2053 14.2486 24.2322 14.2372 24.2606 14.2324C24.2269 14.041 24.177 13.8528 24.1113 13.6699C23.9928 13.6898 23.9197 13.6578 23.8807 13.5758C23.8705 13.5538 23.8649 13.5301 23.864 13.506C23.8631 13.4818 23.867 13.4578 23.8756 13.4352C23.8841 13.4126 23.897 13.3919 23.9136 13.3743C23.9303 13.3568 23.9502 13.3427 23.9723 13.333C23.8893 13.1569 23.7913 12.9882 23.6795 12.8288C23.5764 12.8781 23.4924 12.8666 23.4335 12.7961C23.4073 12.7664 23.3928 12.7281 23.3925 12.6885C23.3913 12.6603 23.3967 12.6323 23.4083 12.6066C23.4198 12.5809 23.4373 12.5583 23.4591 12.5405C23.3326 12.3924 23.1949 12.2543 23.0472 12.1273C22.9588 12.2029 22.873 12.2125 22.7999 12.16C22.7668 12.1379 22.7425 12.1047 22.7314 12.0665C22.7234 12.0396 22.7217 12.0112 22.7264 11.9836C22.731 11.9559 22.7419 11.9297 22.7583 11.9069C22.5986 11.7956 22.43 11.6977 22.2541 11.6142C22.1881 11.709 22.1138 11.7404 22.0299 11.7122C21.9927 11.7003 21.9602 11.677 21.937 11.6456C21.9201 11.6206 21.9093 11.5919 21.9055 11.562C21.9018 11.5321 21.9051 11.5017 21.9152 11.4732C21.7325 11.4071 21.5443 11.3572 21.3528 11.324C21.3162 11.4278 21.2503 11.4816 21.1651 11.4764C21.1252 11.4752 21.0869 11.4607 21.0562 11.4354C21.0333 11.4162 21.0155 11.3917 21.0042 11.364C20.9929 11.3363 20.9886 11.3063 20.9914 11.2766C20.7979 11.2601 20.6033 11.2603 20.4098 11.2772C20.3963 11.3925 20.3463 11.4585 20.2611 11.4726C20.2228 11.4808 20.1829 11.4758 20.1477 11.4585C20.1215 11.4455 20.0988 11.4265 20.0814 11.403C20.064 11.3795 20.0525 11.3522 20.0478 11.3233C19.8563 11.3582 19.668 11.4085 19.4847 11.4739C19.5052 11.5873 19.4732 11.6616 19.395 11.7019C19.3611 11.7192 19.3252 11.7263 19.2855 11.7192C19.2556 11.7152 19.2273 11.7034 19.2034 11.6851C19.1795 11.6668 19.1607 11.6426 19.149 11.6148C19.0395 11.6558 18.691 11.8576 18.6448 11.9082C18.6922 12.003 18.6814 12.087 18.616 12.1472C18.5975 12.1635 18.576 12.1759 18.5526 12.1837C18.5293 12.1915 18.5046 12.1946 18.48 12.1927C18.4555 12.1908 18.4315 12.1839 18.4097 12.1726C18.3878 12.1613 18.3684 12.1456 18.3527 12.1267C18.2049 12.253 18.0672 12.3908 17.9408 12.5386Z"
        fill="#010088" />
    <path fill-rule="evenodd" clip-rule="evenodd"
        d="M22.473 17.9507C22.4653 17.9424 22.4577 17.9367 22.4519 17.9277C22.0795 17.3583 21.706 16.7897 21.3314 16.2217C21.3231 16.2057 21.3135 16.1897 21.3058 16.1717C21.2187 15.9687 21.1335 15.7656 21.0444 15.5631C21.0414 15.5527 21.0374 15.5426 21.0323 15.533C20.9964 15.5465 20.9637 15.5619 20.9253 15.5766L20.9381 15.6093C21.0182 15.8059 21.095 16.0033 21.1764 16.1999C21.1982 16.2525 21.2072 16.3075 21.2187 16.3626C21.2815 16.6567 21.3404 16.952 21.4038 17.2467L21.6204 18.2992C21.6214 18.3018 21.6218 18.3045 21.6215 18.3072C21.6211 18.3099 21.6201 18.3125 21.6184 18.3146L21.6095 18.2922C21.4339 17.7547 21.2539 17.2179 21.0778 16.6804C21.0425 16.5753 21.0111 16.4715 20.9727 16.3665C20.9548 16.314 20.949 16.2601 20.9407 16.2057C20.9182 16.0532 20.899 15.8995 20.874 15.747C20.8708 15.7105 20.8651 15.6746 20.8599 15.6394C20.8584 15.6247 20.856 15.6102 20.8529 15.5958C20.8145 15.5997 20.7792 15.6048 20.7408 15.6093C20.7408 15.6246 20.7421 15.6407 20.7433 15.6567C20.7658 15.8444 20.785 16.0327 20.8119 16.2198C20.826 16.3223 20.8189 16.4229 20.8132 16.5254C20.8093 16.6118 20.8036 16.6983 20.7997 16.7855C20.7882 16.961 20.7792 17.1359 20.767 17.3108L20.7478 17.6721C20.7369 17.8771 20.7241 18.0814 20.7132 18.2852C20.7081 18.3428 20.7068 18.4017 20.7011 18.4581L20.6857 18.264L20.6658 17.8438L20.6428 17.469C20.6364 17.3409 20.628 17.2134 20.621 17.0853C20.6152 17.0013 20.612 16.9174 20.6069 16.8348C20.5998 16.7022 20.5915 16.5696 20.5851 16.4382C20.5788 16.3682 20.5805 16.2977 20.5902 16.2281C20.6037 16.1333 20.6139 16.0366 20.6255 15.9405C20.6383 15.8457 20.6492 15.7502 20.6607 15.6567C20.662 15.6419 20.662 15.6266 20.6639 15.6093L20.5518 15.5945C20.5486 15.6202 20.5428 15.6451 20.5383 15.6708C20.5117 15.8665 20.4844 16.0621 20.4563 16.2576C20.4487 16.3338 20.4185 16.4043 20.3929 16.4754C20.1956 17.0763 19.9977 17.6778 19.7978 18.2781C19.7933 18.289 19.7914 18.2993 19.783 18.3095C19.783 18.3018 19.783 18.296 19.7863 18.289C19.8689 17.8841 19.9522 17.4786 20.038 17.0737C20.0931 16.8047 20.1501 16.5363 20.2046 16.2678L20.22 16.2236C20.3026 16.0205 20.382 15.8155 20.4666 15.6125C20.4695 15.6005 20.4738 15.5889 20.4794 15.5779C20.4441 15.5628 20.4087 15.548 20.3731 15.5337C20.3686 15.5452 20.3615 15.5548 20.3577 15.5663C20.2693 15.7701 20.1828 15.9744 20.0944 16.1781C20.0889 16.1934 20.082 16.2082 20.0739 16.2223C19.6959 16.795 19.319 17.3683 18.9432 17.9424C18.938 17.9511 18.9313 17.9587 18.9233 17.9648C18.9265 17.9546 18.9323 17.9463 18.9361 17.9373L19.8625 16.1006C19.8705 16.0839 19.8804 16.0683 19.892 16.0539L20.2879 15.5228C20.2962 15.5138 20.3013 15.5055 20.309 15.4959C20.2763 15.4722 20.2501 15.4504 20.2174 15.4254C20.2103 15.4337 20.2039 15.4408 20.1982 15.4491C20.0598 15.6227 19.9233 15.7976 19.7882 15.9706C19.7728 15.9866 19.7587 16.0033 19.7414 16.018C19.2366 16.4696 18.7318 16.9187 18.225 17.371C18.2148 17.3793 18.2045 17.3883 18.1917 17.394C18.1975 17.3883 18.2007 17.3812 18.2045 17.3767C18.6203 16.9123 19.0329 16.4485 19.4467 15.984C19.4704 15.9584 19.4941 15.9328 19.5165 15.9052C19.564 15.8501 19.6171 15.8015 19.6748 15.7579L20.1348 15.3959C20.145 15.3882 20.1527 15.3799 20.1642 15.3722C20.1415 15.3415 20.118 15.3114 20.0938 15.2819C20.0835 15.2883 20.0752 15.2947 20.0656 15.3018C19.8894 15.4337 19.7126 15.5644 19.5364 15.697C19.5167 15.7119 19.4957 15.725 19.4736 15.7361C18.8721 16.0398 18.2673 16.3434 17.6645 16.6471C17.653 16.6522 17.6421 16.6586 17.6286 16.6586L17.653 16.6413L18.7779 15.9046C18.9739 15.7758 19.1706 15.6471 19.3654 15.5177C19.382 15.508 19.3993 15.4997 19.414 15.492C19.6184 15.4055 19.8221 15.3184 20.0246 15.2313C20.0342 15.2275 20.0438 15.2236 20.0553 15.2178L20.0124 15.1121C20.0002 15.1153 19.9925 15.1185 19.9829 15.1217C19.7754 15.2044 19.5697 15.2883 19.3609 15.3703C19.318 15.3863 19.2712 15.394 19.2257 15.4036L17.8259 15.6945C17.6498 15.7323 17.4704 15.7694 17.2936 15.8059C17.2865 15.8076 17.279 15.8067 17.2724 15.8034C17.3211 15.788 17.3698 15.7707 17.4179 15.7547C18.0226 15.5555 18.6267 15.3569 19.2295 15.1563C19.277 15.1403 19.3276 15.1358 19.3756 15.1282C19.5704 15.1012 19.7645 15.0731 19.9573 15.0455C19.9691 15.0434 19.9809 15.0409 19.9925 15.0378C19.9887 15.0007 19.9829 14.9635 19.9797 14.9251L19.8862 14.9353L19.4993 14.9821C19.4269 14.9917 19.3551 14.9994 19.284 15.0084C19.2667 15.0103 19.25 15.0109 19.2334 15.0103L18.826 14.9866L18.5851 14.9731L18.17 14.9488L17.5646 14.9155C17.4185 14.9078 17.2763 14.8982 17.1309 14.8879C17.1539 14.886 17.1795 14.8822 17.2045 14.8822L17.701 14.854L18.357 14.8168L18.9003 14.7861L19.2411 14.7656C19.2545 14.7649 19.2705 14.7668 19.284 14.7681L19.6748 14.8149L19.9515 14.8482H19.9797C19.9829 14.8117 19.9887 14.7771 19.9925 14.7374C19.9688 14.7322 19.9419 14.7284 19.9182 14.7239C19.7472 14.7002 19.5774 14.6752 19.4064 14.6502C19.3708 14.6462 19.3354 14.6415 19.3 14.6362C19.2804 14.6335 19.2611 14.629 19.2424 14.6227C18.7331 14.4555 18.227 14.287 17.7183 14.1198C17.5768 14.0734 17.4354 14.0264 17.2942 13.9789C17.282 13.9756 17.2705 13.9702 17.2603 13.9629L17.3493 13.9808L18.4365 14.2069C18.7273 14.2678 19.0226 14.328 19.3135 14.3895C19.331 14.3934 19.3481 14.3987 19.3647 14.4055C19.5697 14.4862 19.7728 14.5695 19.9797 14.6515L20.0105 14.6637C20.0246 14.6285 20.0399 14.5945 20.0553 14.558C20.0449 14.5518 20.034 14.5464 20.0226 14.542C19.8189 14.4561 19.6158 14.3684 19.4128 14.2806C19.3968 14.2739 19.3814 14.2659 19.3666 14.2569C18.792 13.8809 18.2199 13.5029 17.6446 13.1262C17.6371 13.122 17.631 13.1155 17.6273 13.1076L17.6504 13.1204C18.2231 13.4087 18.7965 13.697 19.3705 13.9846C19.4653 14.032 19.5575 14.0891 19.6421 14.1538C19.7818 14.262 19.924 14.3658 20.0662 14.4722C20.0758 14.4792 20.0841 14.4856 20.0944 14.492L20.1649 14.403L20.1399 14.3812L19.619 13.9718C19.6011 13.9577 19.587 13.943 19.5716 13.9276C19.1181 13.4196 18.6639 12.911 18.2116 12.4029C18.2051 12.3977 18.2 12.3909 18.1969 12.3831C18.2103 12.3844 18.2154 12.3933 18.2212 12.3991C18.496 12.6425 18.7683 12.886 19.0412 13.1294L19.7472 13.7585C19.76 13.77 19.7722 13.7841 19.7837 13.7969L20.1879 14.3107C20.1982 14.3222 20.2059 14.3344 20.2174 14.3498L20.3103 14.2787C20.3045 14.2697 20.2968 14.2627 20.2923 14.2543C20.1604 14.0782 20.029 13.9014 19.8958 13.7258C19.8821 13.7052 19.8695 13.6838 19.858 13.6618C19.5505 13.0564 19.2456 12.4484 18.94 11.8424C18.9342 11.8309 18.9285 11.8219 18.9272 11.8097C18.9329 11.8161 18.9387 11.8219 18.9425 11.8277L19.5973 12.8283L20.0604 13.533C20.0765 13.5599 20.0944 13.5881 20.1046 13.6176C20.1911 13.8149 20.2744 14.0128 20.3583 14.2101C20.3641 14.2191 20.3679 14.2287 20.3737 14.2402L20.48 14.196L20.4685 14.1691C20.3884 13.9693 20.3103 13.7694 20.2289 13.5708C20.2065 13.5202 20.1982 13.4677 20.1873 13.4151C20.1175 13.0814 20.0502 12.747 19.9804 12.4125C19.9118 12.091 19.8465 11.7719 19.7792 11.449C19.7779 11.4471 19.7792 11.4446 19.7818 11.4382L19.8381 11.6092C20.0393 12.2133 20.2385 12.8187 20.4358 13.4241C20.4525 13.4715 20.4583 13.5234 20.4653 13.5727C20.489 13.7406 20.5127 13.9097 20.5396 14.0788C20.5441 14.1108 20.546 14.1429 20.5524 14.1781L20.6639 14.164V14.1217C20.6479 13.9878 20.6306 13.8533 20.6152 13.7201C20.6056 13.6419 20.5986 13.5657 20.5877 13.4894C20.5813 13.4382 20.5813 13.3863 20.5877 13.335C20.5922 13.2479 20.5986 13.1614 20.6024 13.075L20.6338 12.5528C20.6396 12.4593 20.6415 12.3645 20.6473 12.271C20.6556 12.1492 20.662 12.0256 20.669 11.9032C20.6748 11.8136 20.6793 11.7232 20.6831 11.6342C20.6883 11.5285 20.6966 11.4234 20.7055 11.3184C20.7081 11.3472 20.7094 11.3767 20.7107 11.4074C20.7196 11.5362 20.726 11.6649 20.7337 11.7943L20.767 12.3812L20.7869 12.7104C20.7972 12.9007 20.8061 13.0916 20.817 13.2819C20.8202 13.3107 20.8215 13.3376 20.8234 13.3658C20.8318 13.4401 20.817 13.5138 20.8106 13.5875L20.7696 13.9231C20.7632 13.9866 20.7536 14.05 20.7459 14.114C20.7446 14.1294 20.7446 14.1461 20.7401 14.1647C20.7799 14.1704 20.8157 14.1743 20.8555 14.1794C20.8612 14.1518 20.8638 14.1262 20.8683 14.0993C20.899 13.8911 20.9285 13.6829 20.958 13.4734C20.9605 13.458 20.9669 13.442 20.9708 13.426C21.1796 12.7995 21.3846 12.1723 21.5922 11.5445C21.6024 11.5157 21.6101 11.4881 21.6261 11.4606C21.6244 11.4752 21.6221 11.4897 21.6191 11.5041C21.5255 11.9577 21.4282 12.41 21.3353 12.8623C21.2936 13.0743 21.2494 13.287 21.2052 13.499C21.2021 13.5166 21.1965 13.5337 21.1886 13.5497L20.9413 14.1679C20.9368 14.1768 20.9336 14.1864 20.9291 14.198C20.9676 14.2127 20.999 14.2274 21.0361 14.2422L21.0508 14.2114L21.309 13.6047C21.3193 13.5842 21.327 13.5644 21.3404 13.5477L22.4583 11.8424C22.4653 11.8334 22.4711 11.8245 22.482 11.818C22.4775 11.827 22.4743 11.836 22.4685 11.845L21.5493 13.6707C21.5396 13.688 21.53 13.7053 21.5185 13.7207C21.3853 13.8982 21.2514 14.0756 21.12 14.2518C21.1137 14.2619 21.1066 14.2715 21.0989 14.2806L21.1899 14.3517C21.197 14.3441 21.2037 14.3359 21.2097 14.3274C21.3455 14.1544 21.4807 13.9808 21.6184 13.8078C21.6336 13.7884 21.6506 13.7704 21.669 13.754C22.1751 13.3017 22.6819 12.8501 23.1886 12.3991C23.1969 12.392 23.2027 12.385 23.2162 12.3812L23.1995 12.4017C22.9926 12.6355 22.7857 12.868 22.5755 13.1006C22.3257 13.3792 22.079 13.6573 21.8311 13.936C21.8183 13.95 21.8029 13.9622 21.7895 13.9737L21.2687 14.3831L21.243 14.4036C21.2674 14.4344 21.2892 14.4638 21.3148 14.4946L21.3423 14.4741L21.876 14.0743C21.8896 14.0646 21.9037 14.0556 21.9183 14.0474C22.5333 13.7386 23.1444 13.4311 23.7556 13.1224C23.7658 13.1179 23.7741 13.114 23.785 13.114C23.7568 13.1326 23.7306 13.1505 23.7024 13.1678C23.1495 13.5311 22.5967 13.8943 22.0419 14.2575C22.0265 14.2665 22.0124 14.2755 21.9958 14.2825C21.7914 14.3709 21.5851 14.4581 21.3827 14.5458L21.35 14.5586C21.3673 14.5945 21.3795 14.6285 21.3949 14.6643L21.4243 14.6547C21.63 14.5734 21.8343 14.4882 22.0419 14.4094C22.0931 14.3889 22.1495 14.3799 22.2053 14.3684L23.1489 14.1723C23.4423 14.1121 23.7331 14.0506 24.0272 13.9898C24.0541 13.984 24.0791 13.9782 24.1073 13.9731C24.1143 13.9731 24.1207 13.9718 24.131 13.9757L24.0413 14.0051C23.4154 14.2121 22.7914 14.4183 22.1655 14.6227C22.1181 14.6394 22.0656 14.6438 22.0163 14.6515C21.876 14.6727 21.7376 14.6912 21.6011 14.7111C21.5512 14.7182 21.5018 14.7258 21.4519 14.7322L21.4154 14.7387C21.4192 14.7765 21.425 14.8117 21.4275 14.8527L21.5243 14.8424L21.8702 14.8014C21.9567 14.7905 22.047 14.7784 22.1373 14.77C22.1777 14.7668 22.2187 14.7707 22.2603 14.7726C22.3481 14.7765 22.4359 14.7841 22.5275 14.788L23.0451 14.8187C23.122 14.8232 23.1989 14.8264 23.2783 14.8315L23.8062 14.8617C23.9311 14.8693 24.0599 14.8751 24.1841 14.8828C24.215 14.8846 24.2457 14.8873 24.2764 14.8911L24.1829 14.8988L23.7953 14.92L23.3155 14.9481L22.9535 14.9674C22.7869 14.9776 22.6172 14.9872 22.4493 14.9981C22.3571 15.002 22.2623 15.0109 22.1694 15.0116C22.1162 15.0128 22.0605 15.0026 22.0086 14.9968C21.8947 14.9835 21.7809 14.9698 21.6671 14.9558L21.4487 14.9296H21.4275C21.425 14.9667 21.4192 15.0032 21.4154 15.0423C21.6412 15.0757 21.8671 15.1084 22.0931 15.1403C22.1598 15.1487 22.2181 15.1749 22.2808 15.1948L24.1028 15.7963C24.1146 15.7988 24.1258 15.8038 24.1355 15.8111C24.1201 15.8085 24.1053 15.8059 24.09 15.8047L22.5076 15.4747L22.0899 15.3876C22.0765 15.3838 22.0585 15.3786 22.0438 15.3716C21.8382 15.2902 21.6319 15.207 21.425 15.1243L21.3974 15.1147C21.3825 15.1498 21.3669 15.1846 21.3507 15.2191L21.3846 15.2351C21.589 15.3223 21.792 15.4087 21.9951 15.4965C22.0111 15.5036 22.0272 15.5119 22.0438 15.5234L23.7492 16.6407C23.7575 16.6471 23.7684 16.6548 23.7754 16.6669C23.7671 16.6618 23.7575 16.6586 23.7504 16.6535L22.8619 16.2076C22.5518 16.05 22.2392 15.8937 21.9259 15.7361C21.906 15.7262 21.8873 15.714 21.8702 15.6996C21.694 15.5683 21.5159 15.4363 21.3398 15.3037C21.3319 15.297 21.3236 15.2911 21.3148 15.2857C21.2904 15.3152 21.2687 15.344 21.243 15.3748L21.2674 15.394C21.4391 15.5311 21.614 15.6682 21.7863 15.8047C21.8059 15.8187 21.8237 15.835 21.8395 15.8533L23.1969 17.3723C23.2025 17.3799 23.2068 17.3883 23.2098 17.3973C23.2027 17.3896 23.1931 17.3844 23.186 17.3787C22.6768 16.9232 22.1668 16.4703 21.6562 16.0154C21.6447 16.0051 21.6343 15.9935 21.6255 15.9808L21.2104 15.4517C21.2046 15.4433 21.1975 15.4357 21.1905 15.4273C21.161 15.4517 21.1322 15.4735 21.1027 15.4991C21.1053 15.5068 21.1111 15.5151 21.1162 15.5228L21.5191 16.0596C21.5306 16.0753 21.5409 16.0917 21.5499 16.109C21.8555 16.715 22.1604 17.3223 22.4653 17.929C22.4703 17.9372 22.4736 17.9464 22.475 17.9559H22.473V17.9507Z"
        fill="#010088" />
    <path fill-rule="evenodd" clip-rule="evenodd"
        d="M22.4668 17.9512C22.4732 17.9576 22.477 17.9646 22.4822 17.9704C22.479 17.9717 22.479 17.9736 22.4751 17.9742C22.4738 17.9653 22.4694 17.9595 22.4681 17.9512H22.4668Z"
        fill="#010088" />
</svg>
