<svg width="128" height="128" viewBox="0 0 128 128" fill="none" xmlns="http://www.w3.org/2000/svg">
    <path
        d="M16.7 19.6992C15.7 19.6992 15 20.4992 15 21.4992V21.5992C15 46.2992 19 80.8992 39 105.099C51.1 119.799 62.9 123.599 63.5 123.799L64.1 123.999L64.6 123.799C65.1 123.599 77.1 119.799 89.1 105.099C109 80.8992 113.1 46.2992 113.1 21.5992V21.4992C113.1 20.4992 112.3 19.6992 111.4 19.6992C111.1 19.6992 82.3 18.6992 65.4 4.39922C64.7 3.79922 63.7 3.79922 63 4.39922C45.9 18.5992 17 19.5992 16.7 19.6992Z"
        fill="#B7791E" />
    <path opacity="0.2"
        d="M64 7.30039C79.7 20.0004 104.3 22.3004 110 22.6004C109.9 46.8004 105.7 80.1004 86.7 103.2C76.3 115.9 65.9 120.1 63.9 120.8C61.9 120.1 51.6 115.9 41.2 103.2C22.3 80.1004 18.1 46.8004 18 22.6004C23.6 22.2004 48.3 19.9004 64 7.30039ZM64 3.90039C63.6 3.90039 63.1 4.00039 62.8 4.40039C45.9 18.6004 17 19.6004 16.7 19.7004C15.7 19.7004 15 20.5004 15 21.5004V21.6004C15 46.3004 19 80.9004 39 105.1C51.1 119.8 62.9 123.6 63.5 123.8L64.1 124L64.6 123.8C65.1 123.6 77.1 119.8 89.1 105.1C109 80.9004 113.1 46.3004 113.1 21.6004V21.5004C113.1 20.5004 112.3 19.7004 111.4 19.7004C111.1 19.7004 82.3 18.7004 65.4 4.40039C64.9 4.10039 64.5 3.90039 64 3.90039Z"
        fill="#424242" />
    <path
        d="M27 29.0004C26.2 29.0004 26 30.0004 26 30.7004V30.8004C26 50.1004 29 77.2004 44.6 96.1004C54 107.6 63.2 110.6 63.6 110.7L64 110.8L64.4 110.7C64.8 110.6 74 107.6 83.4 96.1004C99 77.2004 102 50.2004 102 30.8004V30.7004C102 29.9004 101.6 29.3004 100.8 29.3004H100.9C100.7 29.3004 78.2 28.5004 65 17.4004C64.4 16.9004 63.7 16.9004 63.1 17.4004V17.2004C49.8 28.3004 27.3 29.0004 27 29.0004Z"
        fill="#FFD36D" />
    <path
        d="M100.8 29.3C100.6 29.3 78.1 28.5 64.9 17.3C64.7 17.1 64.3 17 64 17V110.8L64.4 110.7C64.8 110.6 74 107.6 83.4 96.1C99 77.2 102 50.2 102 30.8V30.7C102 30 101.6 29.3 100.8 29.3Z"
        fill="#FFE08A" />
    <path fill-rule="evenodd" clip-rule="evenodd"
        d="M75.8236 51.9458C76.3572 51.4169 77.0775 51.1193 77.8287 51.1172C78.58 51.1151 79.3019 51.4088 79.8384 51.9348C80.3749 52.4607 80.6828 53.1767 80.6956 53.9278C80.7084 54.679 80.4251 55.405 79.9068 55.949L64.6873 74.9733C64.4257 75.2551 64.1101 75.4812 63.7591 75.6381C63.4082 75.795 63.0292 75.8796 62.6448 75.8867C62.2604 75.8938 61.8785 75.8234 61.522 75.6795C61.1655 75.5357 60.8416 75.3214 60.5698 75.0496L50.4858 64.9617C50.2048 64.6999 49.9795 64.3843 49.8232 64.0335C49.6669 63.6828 49.5829 63.3041 49.5761 62.9202C49.5694 62.5363 49.64 62.1549 49.7838 61.7989C49.9276 61.4428 50.1417 61.1194 50.4132 60.8479C50.6847 60.5764 51.0081 60.3623 51.3642 60.2185C51.7202 60.0747 52.1016 60.0041 52.4855 60.0108C52.8694 60.0176 53.2481 60.1016 53.5988 60.2579C53.9496 60.4142 54.2652 60.6395 54.527 60.9205L62.5104 68.9L75.7512 52.0297C75.7748 52.0002 75.8003 51.9722 75.8274 51.9458H75.8236Z"
        fill="#7A460B" />
</svg>
