<svg width="41" height="29" viewBox="0 0 41 29" fill="none" xmlns="http://www.w3.org/2000/svg">
    <path d="M0 8.09375H41V20.9062H0V8.09375Z" fill="#2B3990" />
    <path
        d="M6.40632 28.5938H34.5938C37.852 28.5938 39.8771 26.7327 40.6452 24.1094H0.35498C1.12309 26.7327 3.14811 28.5938 6.40632 28.5938Z"
        fill="#EC1C24" />
    <path
        d="M34.5938 0.40625H6.40632C3.14811 0.40625 1.12309 2.26727 0.35498 4.89062H40.6458C39.8771 2.26727 37.852 0.40625 34.5938 0.40625Z"
        fill="#EC1C24" />
    <path
        d="M41 20.9062H0V21.5469C0 22.4521 0.121719 23.3144 0.354906 24.1094H40.6457C40.8783 23.3144 41 22.4521 41 21.5469V20.9062Z"
        fill="#E6E7E8" />
    <path
        d="M41.0001 7.45312C41.0001 6.54792 40.8784 5.68564 40.6452 4.89062H0.355015C0.115373 5.72355 -0.00413509 6.58642 0.000109192 7.45312V8.09375H41.0001V7.45312Z"
        fill="#E6E7E8" />
</svg>
