<svg width="31" height="24" viewBox="0 0 31 24" fill="none" xmlns="http://www.w3.org/2000/svg">
    <path
        d="M27.0926 5.95521C27.1054 6.21441 27.1102 6.47681 27.1102 6.73601C27.1102 14.72 21.035 23.9232 9.92619 23.9232C6.51339 23.9232 3.34059 22.9232 0.666992 21.208C2.24839 21.3992 3.85198 21.277 5.38609 20.8481C6.92021 20.4193 8.35477 19.6923 9.60779 18.7088C8.34766 18.685 7.12647 18.268 6.11496 17.5161C5.10345 16.7642 4.35218 15.715 3.96619 14.5152C4.87189 14.6846 5.80402 14.649 6.69419 14.4112C5.32717 14.134 4.09803 13.3927 3.21507 12.3129C2.3321 11.2331 1.84962 9.88125 1.84939 8.48641V8.41121C2.68811 8.87777 3.62614 9.13723 4.58539 9.16801C3.30519 8.31454 2.39895 7.00468 2.05166 5.50577C1.70436 4.00687 1.94219 2.43193 2.71659 1.10241C4.23305 2.96874 6.12515 4.49521 8.26999 5.58265C10.4148 6.6701 12.7644 7.29419 15.1662 7.41441C15.0623 6.9626 15.0102 6.50041 15.011 6.03681C15.011 5.24391 15.1672 4.45878 15.4707 3.72626C15.7741 2.99373 16.219 2.32817 16.7797 1.76758C17.3404 1.20699 18.0061 0.762356 18.7387 0.459073C19.4713 0.155789 20.2565 -0.000202129 21.0494 8.02218e-06C21.8757 -0.00133959 22.6935 0.167112 23.4521 0.494913C24.2106 0.822714 24.8937 1.30287 25.459 1.90561C26.8112 1.63793 28.1081 1.14233 29.2942 0.440008C28.8431 1.83873 27.8992 3.02596 26.6382 3.78081C27.8354 3.63888 29.0046 3.31853 30.107 2.83041C29.2972 4.04391 28.2762 5.10227 27.0926 5.95521Z"
        fill="#49C0B8" />
</svg>
