<svg width="91" height="65" viewBox="0 0 91 65" fill="none" xmlns="http://www.w3.org/2000/svg">
<path d="M71.0457 48.6774L71.8241 49.4789L71.5144 48.4054C70.2321 43.9376 74.3661 39.773 78.8263 41.0298L79.9498 41.3463L79.1288 40.5695C75.7494 37.3469 77.2608 31.6567 81.7939 30.5359L82.8708 30.2812L81.7597 29.9861C80.5263 29.6765 79.5259 29.0323 78.7565 28.1971L78.7441 28.1758C76.8041 25.9123 76.6671 22.2894 79.0716 19.9543L79.8731 19.176L78.7996 19.4856C74.3317 20.768 70.1672 16.634 71.424 12.1737L71.7404 11.0503L70.9636 11.8712C67.7411 15.2506 62.0509 13.7392 60.93 9.20613L60.663 8.10791L60.3802 9.24033C59.2581 13.7363 53.5911 15.2589 50.3485 11.9285L49.5701 11.127L49.8797 12.2005C50.0486 12.786 50.1165 13.3447 50.1081 13.9192C50.0871 17.6623 46.4434 20.6595 42.5679 19.576L41.4444 19.2596L42.2654 20.0364C45.6448 23.2589 44.1333 28.9491 39.6003 30.07L38.5021 30.337L39.6345 30.6198C44.1305 31.7419 45.653 37.409 42.3226 40.6515L41.5211 41.4299L42.5946 41.1203C47.0624 39.8379 51.227 43.9719 49.9702 48.4321L49.6538 49.5556L50.4305 48.7346C53.6531 45.3553 59.3433 46.8667 60.4642 51.3997L60.7312 52.498L61.0139 51.3655C62.1361 46.8695 67.8031 45.347 71.0457 48.6774ZM47.9131 37.7209C43.8209 30.6684 46.2266 21.6112 53.2791 17.519C60.3316 13.4267 69.3888 15.8325 73.4811 22.885C77.5733 29.9375 75.1676 38.9947 68.1151 43.0869C61.0626 47.1792 52.0054 44.7734 47.9131 37.7209Z" fill="#F39C12"/>
<path d="M68.1159 43.0875C61.0571 47.1835 52.0099 44.7804 47.914 37.7215C43.818 30.6626 46.2211 21.6155 53.28 17.5195C60.3389 13.4236 69.386 15.8267 73.4819 22.8855C77.5779 29.9444 75.1748 38.9915 68.1159 43.0875Z" fill="#F0C40F"/>
<path d="M77.0545 49.7146C77.0545 58.0409 70.3048 64.7905 61.9786 64.7905H15.0759C6.75212 64.7905 0 58.0409 0 49.7146C0 41.3909 6.75212 34.6388 15.0759 34.6388C16.0489 34.6388 16.9875 34.7225 17.9088 34.9073C20.5199 27.8891 27.2548 22.9131 35.177 22.9131C44.0403 22.9131 51.428 29.1454 53.2016 37.4692C55.6625 35.6956 58.7146 34.6388 61.9786 34.6388C70.3048 34.6388 77.0545 41.3909 77.0545 49.7146Z" fill="#EBEFF0"/>
</svg>
