<svg width="32" height="32" viewBox="0 0 32 32" fill="none" xmlns="http://www.w3.org/2000/svg">
<path d="M8.08758 18.2952C8.03554 18.2732 7.9788 18.2646 7.92258 18.2702C7.60008 18.2927 5.91008 19.7977 5.46758 20.8852C5.16508 21.6252 5.52508 22.4752 6.26508 22.7752C6.62147 22.92 7.02076 22.9173 7.37517 22.7677C7.72958 22.6182 8.0101 22.334 8.15508 21.9777C8.49008 21.1552 8.58258 18.4952 8.08758 18.2952Z" fill="#95C8EC"/>
<path d="M12.1226 27.2421C12.0701 27.2221 12.0151 27.2121 11.9601 27.2171C11.6376 27.2396 9.94761 28.7446 9.50511 29.8321C9.20511 30.5721 9.56261 31.4196 10.3026 31.7221C11.0426 32.0221 11.8926 31.6646 12.1926 30.9246C12.5251 30.1021 12.6176 27.4446 12.1226 27.2421Z" fill="#95C8EC"/>
<path d="M25.7076 17.4381C25.6551 17.4156 25.6001 17.4081 25.5451 17.4106C25.2226 17.4331 23.5326 18.9406 23.0901 20.0281C22.7901 20.7681 23.1476 21.6156 23.8876 21.9181C24.6301 22.2181 25.4776 21.8606 25.7776 21.1206C26.1126 20.2981 26.2026 17.6406 25.7076 17.4381Z" fill="#95C8EC"/>
<path d="M21.5074 23.6054C21.4549 23.5854 21.3999 23.5754 21.3424 23.5804C21.0199 23.6029 19.3299 25.1079 18.8874 26.1954C18.5874 26.9354 18.9449 27.7854 19.6849 28.0854C20.4249 28.3879 21.2749 28.0279 21.5749 27.2879C21.9124 26.4654 22.0024 23.8079 21.5074 23.6054Z" fill="#95C8EC"/>
<path d="M8.08758 18.2952C8.03554 18.2732 7.9788 18.2646 7.92258 18.2702C7.60008 18.2927 5.91008 19.7977 5.46758 20.8852C5.16508 21.6252 5.52508 22.4752 6.26508 22.7752C6.62147 22.92 7.02076 22.9173 7.37517 22.7677C7.72958 22.6182 8.0101 22.334 8.15508 21.9777C8.49008 21.1552 8.58258 18.4952 8.08758 18.2952Z" fill="#70B2E2"/>
<path d="M12.1226 27.2431C12.0701 27.2231 12.0151 27.2131 11.9601 27.2181C11.6376 27.2406 9.94761 28.7456 9.50511 29.8331C9.20511 30.5731 9.56261 31.4206 10.3026 31.7231C11.0426 32.0231 11.8926 31.6656 12.1926 30.9256C12.5251 30.1031 12.6176 27.4456 12.1226 27.2431Z" fill="#70B2E2"/>
<path d="M25.7076 17.4381C25.6551 17.4156 25.6001 17.4081 25.5451 17.4106C25.2226 17.4331 23.5326 18.9406 23.0901 20.0281C22.7901 20.7681 23.1476 21.6156 23.8876 21.9181C24.6301 22.2181 25.4776 21.8606 25.7776 21.1206C26.1126 20.2981 26.2026 17.6406 25.7076 17.4381Z" fill="#70B2E2"/>
<path d="M21.5074 23.6054C21.4549 23.5854 21.3999 23.5754 21.3424 23.5804C21.0199 23.6029 19.3299 25.1079 18.8874 26.1954C18.5874 26.9354 18.9449 27.7854 19.6849 28.0854C20.4249 28.3879 21.2749 28.0279 21.5749 27.2879C21.9124 26.4654 22.0024 23.8079 21.5074 23.6054Z" fill="#70B2E2"/>
<path d="M15.5124 15.5303C15.5124 15.5303 11.2024 21.4603 11.8774 21.8453C12.3374 22.1078 15.4999 22.0678 15.9049 22.3228C16.3099 22.5803 14.0224 26.3203 14.0499 26.4703C14.0849 26.6553 14.3574 26.9978 15.9299 25.8103C18.3649 23.9728 19.9049 21.8378 19.9049 21.8378C19.9049 21.8378 21.3399 20.6078 16.7524 20.1478C16.3274 19.7278 20.3174 16.1428 20.3174 16.1428L15.5124 15.5303Z" fill="#F8B618"/>
<path d="M15.5124 15.5303C15.5124 15.5303 11.2024 21.4603 11.8774 21.8453C12.3374 22.1078 15.4999 22.0678 15.9049 22.3228C16.3099 22.5803 14.0224 26.3203 14.0499 26.4703C14.0849 26.6553 14.3574 26.9978 15.9299 25.8103C18.3649 23.9728 19.9049 21.8378 19.9049 21.8378C19.9049 21.8378 21.3399 20.6078 16.7524 20.1478C16.3274 19.7278 20.3174 16.1428 20.3174 16.1428L15.5124 15.5303Z" fill="#FFCB28"/>
<path d="M25.8749 6.91242C25.8724 6.89742 25.8749 6.88242 25.8749 6.86742C25.8749 4.81242 24.2099 3.14742 22.1549 3.14742C21.8899 3.14742 21.6324 3.17492 21.3849 3.22742C20.6474 1.43242 18.8849 0.169922 16.8249 0.169922C15.2774 0.169922 13.8999 0.882422 12.9949 1.99742C12.3956 1.69204 11.7326 1.5327 11.0599 1.53242C8.83491 1.53242 7.00491 3.22742 6.79241 5.39992C4.36991 5.52742 2.42741 7.51242 2.39491 9.97492C2.36241 12.5399 4.41491 14.6474 6.97991 14.6799C7.17991 14.6824 7.37491 14.6674 7.56741 14.6474C8.55741 16.7374 10.6874 18.1824 13.1549 18.1824C14.6424 18.1824 16.0074 17.6549 17.0749 16.7799C17.8899 17.3849 18.8974 17.7449 19.9899 17.7449C22.2324 17.7449 24.1174 16.2399 24.7049 14.1874C25.0749 14.3099 25.4674 14.3774 25.8799 14.3774C27.9424 14.3774 29.6124 12.7074 29.6124 10.6449C29.6074 8.58492 27.9374 6.91242 25.8749 6.91242Z" fill="#E3EBEE"/>
<path d="M28.0676 7.625C28.9126 8.4775 28.3151 10.4375 27.7326 11.075C26.5876 12.33 24.4876 12.0375 23.6451 11.855C23.4176 11.805 23.3801 11.8225 23.3051 11.8675C23.2376 11.9075 23.2076 11.9725 23.1351 12.1275C22.8626 12.7125 22.1626 13.8475 20.6826 14.3025C19.1401 14.7775 17.6876 14.055 17.0051 13.62C16.7476 13.455 16.7351 13.4525 16.6201 13.4525C16.5026 13.4525 16.3851 13.54 16.2451 13.65C15.6301 14.135 14.2251 14.9875 12.0576 14.8625C9.93264 14.74 8.71764 13.43 8.30264 12.7575C8.22264 12.6275 8.13514 12.52 8.04014 12.51C7.92764 12.4975 7.80014 12.615 7.70514 12.71C6.80014 13.59 3.95764 13.855 3.01514 12.355C3.97264 13.8925 5.45514 14.655 6.97764 14.675C7.17764 14.6775 7.37264 14.6625 7.56514 14.6425C8.55514 16.7325 10.6851 18.1775 13.1526 18.1775C14.6401 18.1775 16.0051 17.65 17.0726 16.775C17.8876 17.38 18.8951 17.74 19.9876 17.74C22.2301 17.74 24.1151 16.235 24.7026 14.1825C25.0726 14.305 25.4651 14.3725 25.8776 14.3725C27.9401 14.3725 29.6101 12.7025 29.6101 10.64C29.6076 9.5475 29.0551 8.31 28.0676 7.625Z" fill="#B9CDD2"/>
</svg>
