<svg width="32" height="32" viewBox="0 0 32 32" fill="none" xmlns="http://www.w3.org/2000/svg">
<path d="M20.4176 18.6474C20.6051 18.6474 20.7926 18.6374 20.9751 18.6174C21.0401 18.6099 21.1026 18.5999 21.1676 18.5899C21.2876 18.5749 21.4076 18.5574 21.5226 18.5374C21.5976 18.5224 21.6701 18.5024 21.7426 18.4849C21.8501 18.4599 21.9551 18.4349 22.0601 18.4049C22.1351 18.3824 22.2076 18.3549 22.2801 18.3299C22.3801 18.2949 22.4776 18.2624 22.5726 18.2224C22.6451 18.1924 22.7201 18.1599 22.7901 18.1274C22.8826 18.0849 22.9751 18.0424 23.0651 17.9949C23.1351 17.9574 23.2051 17.9199 23.2751 17.8774C23.3626 17.8274 23.4476 17.7774 23.5351 17.7224C23.6026 17.6799 23.6676 17.6324 23.7326 17.5874C23.8126 17.5299 23.8951 17.4724 23.9751 17.4099C24.0351 17.3599 24.1001 17.3074 24.1601 17.2574C24.2351 17.1924 24.3101 17.1249 24.3826 17.0574C24.4401 17.0024 24.4976 16.9474 24.5551 16.8899C24.6251 16.8174 24.6926 16.7424 24.7576 16.6674C24.8101 16.6074 24.8626 16.5474 24.9126 16.4849C24.9751 16.4074 25.0376 16.3249 25.0976 16.2424C25.1451 16.1774 25.1901 16.1124 25.2351 16.0474C25.2901 15.9624 25.3451 15.8724 25.3951 15.7824C25.4376 15.7149 25.4776 15.6474 25.5126 15.5799C25.5651 15.4874 25.6076 15.3899 25.6526 15.2924C25.6851 15.2224 25.7201 15.1549 25.7476 15.0824C25.7926 14.9799 25.8276 14.8724 25.8651 14.7649C25.8901 14.6974 25.9151 14.6299 25.9376 14.5599C25.9751 14.4399 26.0026 14.3149 26.0326 14.1899C26.0476 14.1324 26.0651 14.0724 26.0776 14.0124C26.1151 13.8249 26.1451 13.6374 26.1651 13.4449C26.4876 10.2649 24.1726 7.42238 20.9926 7.09738C20.7926 7.07738 20.5951 7.06738 20.3976 7.06738C20.2076 7.06738 20.0201 7.07738 19.8351 7.09488C19.7726 7.10238 19.7101 7.11238 19.6476 7.11988C19.5276 7.13738 19.4051 7.15238 19.2851 7.17488C19.2126 7.18988 19.1401 7.20988 19.0676 7.22738C18.9626 7.25238 18.8551 7.27738 18.7526 7.30738C18.6751 7.32988 18.6001 7.35988 18.5276 7.38238C18.4301 7.41738 18.3326 7.44738 18.2351 7.48738C18.1626 7.51988 18.0901 7.55238 18.0151 7.58488C17.9251 7.62738 17.8326 7.66738 17.7451 7.71488C17.6726 7.75488 17.6001 7.79488 17.5326 7.83488C17.4451 7.88488 17.3626 7.93488 17.2801 7.98738C17.2076 8.03238 17.1426 8.07988 17.0751 8.12738C16.9951 8.18238 16.9176 8.24238 16.8401 8.29988C16.7726 8.34988 16.7101 8.40488 16.6476 8.45738C16.5726 8.51988 16.5001 8.58488 16.4301 8.65238C16.3676 8.70988 16.3101 8.76738 16.2526 8.82738C16.1851 8.89738 16.1176 8.96988 16.0551 9.04238C15.9335 9.1766 15.8208 9.31857 15.7176 9.46738C15.6676 9.53238 15.6201 9.59988 15.5751 9.66988C15.5201 9.75238 15.4701 9.83738 15.4176 9.92738C15.3751 9.99738 15.3351 10.0674 15.2951 10.1374C15.2476 10.2299 15.2051 10.3224 15.1601 10.4174C15.1276 10.4899 15.0901 10.5624 15.0601 10.6349C15.0176 10.7349 14.9826 10.8399 14.9476 10.9424C14.9226 11.0124 14.8951 11.0849 14.8751 11.1574C14.8376 11.2749 14.8101 11.3974 14.7801 11.5199C14.7676 11.5824 14.7476 11.6424 14.7326 11.7049C14.6951 11.8899 14.6676 12.0799 14.6476 12.2724C14.3226 15.4524 16.6401 18.2949 19.8201 18.6174C20.0201 18.6374 20.2201 18.6474 20.4176 18.6474Z" fill="#FFB74D"/>
<path d="M19.8572 5.9223L22.3372 6.1748H22.3722C22.4047 6.1748 22.4297 6.16481 22.4622 6.15481C22.4797 6.14981 22.4947 6.15231 22.5122 6.1448C22.5622 6.1223 22.6072 6.0923 22.6422 6.0523C22.7172 5.9623 22.7472 5.8473 22.7172 5.7348L21.8147 2.2498C21.7797 2.1073 21.6597 2.0023 21.5122 1.9898C21.4997 1.9873 21.4872 1.9873 21.4872 1.9873C21.4347 1.9873 21.3972 2.0073 21.3597 2.0198C21.3372 2.0273 21.3147 2.0273 21.2972 2.0373C21.2372 2.0723 21.1872 2.1198 21.1572 2.1823L19.5747 5.4173C19.5247 5.5223 19.5272 5.6448 19.5872 5.7448C19.6422 5.8448 19.7447 5.9098 19.8572 5.9223Z" fill="#FFB74D"/>
<path d="M26.4972 9.5002C26.5547 9.5727 26.6422 9.6177 26.7347 9.6277C26.7447 9.6302 26.7572 9.6302 26.7697 9.6302H26.7872C26.9097 9.6202 27.0147 9.5577 27.0722 9.4577L28.9022 6.3577C28.9747 6.2302 28.9647 6.0702 28.8722 5.9552C28.8297 5.9027 28.7747 5.8727 28.7147 5.8502C28.6972 5.8452 28.6822 5.8427 28.6647 5.8402C28.6422 5.8352 28.6222 5.8252 28.5997 5.8252C28.5622 5.8252 28.5222 5.8327 28.4847 5.8452L25.0797 7.0152C24.9722 7.0527 24.8872 7.1402 24.8572 7.2502C24.8272 7.3627 24.8497 7.4827 24.9222 7.5702L26.4972 9.5002Z" fill="#FFB74D"/>
<path d="M31.0801 13.6116L27.8426 12.0291C27.7926 12.0041 27.7426 11.9941 27.6876 11.9941H27.6826C27.6276 11.9941 27.5701 12.0091 27.5176 12.0391C27.4176 12.0941 27.3501 12.1941 27.3376 12.3091L27.0851 14.7891C27.08 14.8352 27.0842 14.8818 27.0973 14.9262C27.1104 14.9707 27.1323 15.012 27.1617 15.0479C27.191 15.0837 27.2272 15.1134 27.2682 15.1351C27.3091 15.1567 27.354 15.17 27.4001 15.1741C27.4101 15.1741 27.4226 15.1766 27.4226 15.1766C27.4626 15.1766 27.4926 15.1716 27.5226 15.1641L31.0076 14.2666C31.1501 14.2291 31.2551 14.1091 31.2701 13.9616C31.2901 13.8166 31.2126 13.6766 31.0801 13.6116Z" fill="#FFB74D"/>
<path d="M15.8874 18.15L14.3099 16.2175C14.2749 16.175 14.2299 16.1425 14.1824 16.12C14.1674 16.1125 14.1499 16.1125 14.1324 16.1075C14.0999 16.1 14.0699 16.085 14.0374 16.085C14.0374 16.085 14.0224 16.0875 14.0124 16.0875C13.8974 16.095 13.7949 16.16 13.7374 16.26L11.9074 19.3625C11.8599 19.4375 11.8574 19.5225 11.8724 19.605C11.8549 19.7075 11.8624 19.815 11.9324 19.8975C11.9974 19.9825 12.0999 20.0275 12.2049 20.0275C12.2449 20.0275 12.2824 20.0225 12.3199 20.0075L15.7474 18.815C15.8574 18.7775 15.9424 18.6875 15.9724 18.575C15.9949 18.5 15.9824 18.425 15.9549 18.355C15.9549 18.28 15.9374 18.205 15.8874 18.15Z" fill="#FFB74D"/>
<path d="M14.5598 8.18207C14.5973 8.29207 14.6873 8.37207 14.7973 8.40457C14.8173 8.40957 14.8398 8.41457 14.8573 8.41707C14.8723 8.41707 14.8848 8.41957 14.8973 8.41957C14.9198 8.41957 14.9398 8.41207 14.9598 8.40707C14.9748 8.40457 14.9873 8.40457 15.0023 8.39957C15.0448 8.38707 15.0798 8.36707 15.1173 8.33957L17.0498 6.76457C17.1373 6.69207 17.1873 6.57957 17.1773 6.46457C17.1698 6.35207 17.1048 6.24707 17.0048 6.18957L13.9023 4.35957C13.8498 4.32707 13.7873 4.30957 13.7248 4.30957L13.7073 4.31457C13.6973 4.31457 13.6923 4.31707 13.6823 4.31707C13.6198 4.32457 13.5548 4.34707 13.5023 4.38957C13.3873 4.48207 13.3423 4.63707 13.3898 4.77707L14.5598 8.18207Z" fill="#FFB74D"/>
<path d="M26.3522 17.5874C26.3147 17.4774 26.2247 17.3949 26.1122 17.3624H26.1097C26.0772 17.3424 26.0497 17.3174 26.0122 17.3074C25.9797 17.2999 25.9497 17.2949 25.9172 17.2949C25.8997 17.2949 25.8822 17.2999 25.8697 17.3024C25.8547 17.3049 25.8422 17.3074 25.8297 17.3099C25.7797 17.3224 25.7347 17.3424 25.6947 17.3724L23.7622 18.9499C23.6747 19.0224 23.6272 19.1349 23.6322 19.2474C23.6422 19.3624 23.7047 19.4674 23.8047 19.5249L23.8197 19.5324C23.8447 19.5599 23.8647 19.5874 23.8972 19.6049L27.0322 21.4374C27.0872 21.4699 27.1497 21.4849 27.2097 21.4849H27.2147C27.4322 21.4999 27.5772 21.3299 27.5772 21.1299C27.5772 21.0549 27.5547 20.9874 27.5172 20.9299L26.3522 17.5874Z" fill="#FFB74D"/>
<path d="M21.2324 20C21.2299 19.99 21.2299 19.98 21.2249 19.97C21.1972 19.9206 21.158 19.8786 21.1105 19.8477C21.063 19.8168 21.0088 19.7979 20.9524 19.7925L18.4724 19.54H18.4374C18.4074 19.54 18.3799 19.55 18.3499 19.5575C18.3324 19.56 18.3149 19.56 18.2974 19.5675C18.2474 19.59 18.2049 19.62 18.1699 19.66C18.0924 19.7475 18.0649 19.865 18.0949 19.9775L18.9924 23.4625C19.0024 23.5025 19.0324 23.525 19.0524 23.56L19.0624 23.5975C19.0999 23.7425 19.2224 23.8475 19.3699 23.86C19.3824 23.86 19.3924 23.8625 19.4049 23.8625C19.5399 23.8625 19.6624 23.785 19.7249 23.6625L21.3049 20.395C21.3574 20.2925 21.3524 20.1675 21.2949 20.0675C21.2774 20.04 21.2549 20.0225 21.2324 20Z" fill="#FFB74D"/>
<path d="M13.0999 13.7967C13.1599 13.7967 13.2199 13.7817 13.2724 13.7517C13.3749 13.6967 13.4449 13.5917 13.4524 13.4767L13.4574 13.4442C13.4599 13.4292 13.4699 13.4167 13.4699 13.4017L13.7249 10.9217C13.7374 10.8067 13.6899 10.6942 13.6049 10.6192C13.5649 10.5842 13.5174 10.5667 13.4699 10.5517C13.4549 10.5467 13.4424 10.5467 13.4274 10.5442C13.4099 10.5417 13.3924 10.5342 13.3724 10.5342C13.3424 10.5342 13.3149 10.5367 13.2849 10.5442L9.79739 11.4442C9.70489 11.4667 9.63989 11.5317 9.59489 11.6092C9.53239 11.6692 9.48739 11.7392 9.47739 11.8267C9.46489 11.9742 9.54239 12.1142 9.67739 12.1817L12.9449 13.7617C12.9949 13.7867 13.0474 13.7967 13.0999 13.7967Z" fill="#FFB74D"/>
<path d="M27.5448 16.9704H27.5423C27.5423 16.9529 27.5448 16.9354 27.5448 16.9179C27.5448 14.5154 25.5973 12.5679 23.1948 12.5679C22.8848 12.5679 22.5848 12.6004 22.2923 12.6629C21.4298 10.5654 19.3698 9.08789 16.9623 9.08789C15.1548 9.08789 13.5423 9.92289 12.4848 11.2254C11.7842 10.8678 11.0089 10.6811 10.2223 10.6804C7.61979 10.6804 5.48229 12.6629 5.23229 15.2004C2.39979 15.3504 0.127289 17.6704 0.0922892 20.5479C0.0522892 23.5479 2.45479 26.0104 5.45229 26.0504C5.68479 26.0529 5.91479 26.0379 6.13979 26.0104C7.29729 28.4529 9.78729 30.1454 12.6698 30.1454C14.4098 30.1454 16.0048 29.5304 17.2523 28.5054C18.2048 29.2104 19.3823 29.6329 20.6598 29.6329C23.2798 29.6329 25.4848 27.8754 26.1723 25.4729C26.6048 25.6154 27.0648 25.6954 27.5448 25.6954C29.9548 25.6954 31.9073 23.7429 31.9073 21.3329C31.9098 18.9254 29.9548 16.9704 27.5448 16.9704Z" fill="#E3EBEE"/>
<path d="M30.1098 17.8027C31.0973 18.8002 30.3998 21.0902 29.7198 21.8377C28.3823 23.3027 25.9248 22.9627 24.9398 22.7502C24.6723 22.6927 24.6298 22.7127 24.5448 22.7652C24.4673 22.8127 24.4298 22.8877 24.3473 23.0677C24.0298 23.7527 23.2098 25.0777 21.4798 25.6127C19.6773 26.1702 17.9773 25.3227 17.1798 24.8152C16.8773 24.6227 16.8648 24.6202 16.7298 24.6202C16.5923 24.6227 16.4548 24.7227 16.2923 24.8527C15.5748 25.4177 13.9298 26.4152 11.3973 26.2702C8.91476 26.1277 7.49227 24.5977 7.00727 23.8102C6.91477 23.6602 6.81226 23.5327 6.69976 23.5202C6.56727 23.5077 6.41976 23.6427 6.30726 23.7527C5.24976 24.7827 1.92727 25.0902 0.822266 23.3377C1.94227 25.1352 3.67727 26.0252 5.45476 26.0502C5.68726 26.0527 5.91726 26.0377 6.14226 26.0102C7.29977 28.4527 9.78976 30.1452 12.6723 30.1452C14.4123 30.1452 16.0073 29.5302 17.2548 28.5052C18.2073 29.2102 19.3848 29.6327 20.6623 29.6327C23.2823 29.6327 25.4873 27.8752 26.1748 25.4727C26.6073 25.6152 27.0673 25.6952 27.5473 25.6952C29.9573 25.6952 31.9098 23.7427 31.9098 21.3327C31.9098 20.0502 31.2648 18.6027 30.1098 17.8027Z" fill="#B9CDD2"/>
</svg>
