<svg width="32" height="32" viewBox="0 0 32 32" fill="none" xmlns="http://www.w3.org/2000/svg">
<path d="M7.44988 19.6323C7.39238 19.6098 7.33238 19.5998 7.26988 19.6048C6.91238 19.6298 5.04488 21.2948 4.55488 22.4973C4.22238 23.3148 4.61738 24.2548 5.43738 24.5873C5.83197 24.7468 6.27369 24.7435 6.66585 24.5781C7.05802 24.4127 7.36869 24.0987 7.52988 23.7048C7.89488 22.7973 7.99738 19.8573 7.44988 19.6323Z" fill="#70B2E2"/>
<path d="M10.5149 25.5146C10.4574 25.4896 10.3949 25.4796 10.3324 25.4846C9.97488 25.5096 8.10738 27.1746 7.61738 28.3796C7.28488 29.1971 7.67988 30.1371 8.49988 30.4696C8.89448 30.6292 9.33619 30.6259 9.72836 30.4605C10.1205 30.2951 10.4312 29.9811 10.5924 29.5871C10.9624 28.6771 11.0624 25.7371 10.5149 25.5146Z" fill="#70B2E2"/>
<path d="M16.6774 20.6674C16.6199 20.6449 16.5599 20.6349 16.4974 20.6399C16.1399 20.6649 14.2724 22.3299 13.7824 23.5324C13.4499 24.3524 13.8449 25.2899 14.6649 25.6224C15.4849 25.9549 16.4224 25.5599 16.7549 24.7399C17.1249 23.8324 17.2249 20.8924 16.6774 20.6674Z" fill="#70B2E2"/>
<path d="M20.0749 26.02C20.0174 25.9975 19.9574 25.9875 19.8949 25.9925C19.5374 26.0175 17.6674 27.6825 17.1774 28.885C16.8449 29.7025 17.2399 30.6425 18.0599 30.975C18.8799 31.3075 19.8199 30.9125 20.1524 30.0925C20.5224 29.185 20.6224 26.245 20.0749 26.02Z" fill="#70B2E2"/>
<path d="M25.3846 20.9174C25.3271 20.8949 25.2646 20.8849 25.2021 20.8899C24.8446 20.9149 22.9746 22.5799 22.4846 23.7824C22.1521 24.6024 22.5471 25.5399 23.3671 25.8724C24.1871 26.2049 25.1246 25.8099 25.4571 24.9899C25.8296 24.0799 25.9296 21.1399 25.3846 20.9174Z" fill="#70B2E2"/>
<path d="M26.98 7.49766C26.98 7.49766 26.9775 7.49766 26.98 7.49766C26.9775 7.48016 26.98 7.46516 26.98 7.44766C26.98 5.17516 25.1375 3.33016 22.8625 3.33016C22.57 3.33016 22.285 3.36266 22.01 3.42016C21.195 1.43516 19.245 0.0351562 16.965 0.0351562C15.2525 0.0351562 13.7275 0.825156 12.7275 2.05766C12.064 1.71907 11.3298 1.54258 10.585 1.54266C8.12247 1.54266 6.09747 3.42016 5.86247 5.82016C3.18247 5.96266 1.03497 8.15766 0.999969 10.8827C0.962469 13.7202 3.23497 16.0502 6.07247 16.0877C6.29247 16.0902 6.50997 16.0752 6.72247 16.0502C7.81997 18.3627 10.1725 19.9627 12.9025 19.9627C14.55 19.9627 16.06 19.3802 17.24 18.4102C18.1425 19.0777 19.255 19.4777 20.465 19.4777C22.945 19.4777 25.0325 17.8127 25.6825 15.5427C26.0925 15.6777 26.5275 15.7552 26.9825 15.7552C29.2625 15.7552 31.1125 13.9077 31.1125 11.6252C31.11 9.34516 29.26 7.49766 26.98 7.49766Z" fill="#E3EBEE"/>
<path d="M29.4051 8.28516C30.3401 9.23016 29.6801 11.3977 29.0351 12.1027C27.7701 13.4902 25.4451 13.1652 24.5126 12.9652C24.2601 12.9102 24.2201 12.9302 24.1376 12.9802C24.0651 13.0252 24.0301 13.0977 23.9501 13.2677C23.6501 13.9152 22.8751 15.1702 21.2376 15.6752C19.5326 16.2027 17.9226 15.4002 17.1701 14.9202C16.8851 14.7377 16.8726 14.7352 16.7426 14.7352C16.6126 14.7352 16.4826 14.8327 16.3276 14.9552C15.6476 15.4902 14.0926 16.4352 11.6951 16.2977C9.34506 16.1627 8.00006 14.7127 7.54006 13.9702C7.45256 13.8277 7.35506 13.7077 7.24756 13.6952C7.12256 13.6827 6.98256 13.8127 6.87506 13.9152C5.87506 14.8902 2.73006 15.1802 1.68506 13.5227C2.74506 15.2252 4.38506 16.0677 6.06756 16.0877C6.28756 16.0902 6.50506 16.0752 6.71756 16.0502C7.81506 18.3627 10.1676 19.9627 12.8976 19.9627C14.5451 19.9627 16.0551 19.3802 17.2351 18.4102C18.1376 19.0777 19.2501 19.4777 20.4601 19.4777C22.9401 19.4777 25.0276 17.8127 25.6776 15.5427C26.0876 15.6777 26.5226 15.7552 26.9776 15.7552C29.2576 15.7552 31.1076 13.9077 31.1076 11.6252C31.1101 10.4102 30.4976 9.04016 29.4051 8.28516Z" fill="#B9CDD2"/>
</svg>
